<svg width="119" height="56" viewBox="0 0 119 56" fill="none" xmlns="http://www.w3.org/2000/svg">
<path d="M0 46.6759V0H12.6718V36.4655H31.5427V46.6759H0Z" fill="#669EFF"/>
<path d="M25.07 46.6759V0H58.7095V10.2104H37.7418V18.2328H56.9774V28.4431H37.7418V36.4655H58.6183V46.6759H25.07Z" fill="#337DFF"/>
<path d="M59.2565 46.6759H45.5819L60.9886 0H78.3097L93.7164 46.6759H80.0419L69.8315 12.8541H69.4668L59.2565 46.6759ZM56.7039 28.2608H82.4121V37.7418H56.7039V28.2608Z" fill="#2266DD"/>
<path d="M81.227 46.6759V0H101.374C104.838 0 107.87 0.683729 110.468 2.05119C113.066 3.41864 115.087 5.34068 116.53 7.8173C117.974 10.2939 118.695 13.1884 118.695 16.5007C118.695 19.8433 117.951 22.7378 116.462 25.184C114.988 27.6302 112.914 29.5143 110.24 30.8362C107.581 32.1581 104.474 32.819 100.918 32.819H88.8848V22.9733H98.3658C99.8548 22.9733 101.124 22.715 102.172 22.1984C103.235 21.6666 104.048 20.9145 104.611 19.9421C105.188 18.9697 105.477 17.8225 105.477 16.5007C105.477 15.1636 105.188 14.024 104.611 13.082C104.048 12.1248 103.235 11.3955 102.172 10.8941C101.124 10.3775 99.8548 10.1192 98.3658 10.1192H93.8988V46.6759H81.227Z" fill="#1B51B1"/>
<path d="M79.2765 55.3804H78.2082L79.4118 51.7338H80.765L81.9687 55.3804H80.9003L80.1027 52.738H80.0742L79.2765 55.3804ZM79.0771 53.9417H81.0855V54.6824H79.0771V53.9417Z" fill="#337DFF"/>
<path d="M73.3152 55.3804V51.7338H74.3052V53.1582H75.6157V51.7338H76.6057V55.3804H75.6157V53.9559H74.3052V55.3804H73.3152Z" fill="#337DFF"/>
<path d="M70.688 52.8734C70.6785 52.7547 70.634 52.6621 70.5545 52.5956C70.4761 52.5291 70.3568 52.4959 70.1966 52.4959C70.0945 52.4959 70.0108 52.5084 69.9455 52.5333C69.8814 52.557 69.8339 52.5897 69.8031 52.6312C69.7722 52.6728 69.7562 52.7202 69.755 52.7737C69.7526 52.8176 69.7603 52.8573 69.7781 52.8929C69.7971 52.9274 69.8268 52.9588 69.8672 52.9873C69.9075 53.0146 69.9592 53.0395 70.0221 53.0621C70.085 53.0847 70.1598 53.1048 70.2464 53.1226L70.5456 53.1867C70.7474 53.2295 70.9201 53.2859 71.0637 53.3559C71.2073 53.4259 71.3248 53.5084 71.4162 53.6034C71.5077 53.6972 71.5747 53.8028 71.6175 53.9203C71.6614 54.0378 71.6839 54.166 71.6851 54.3049C71.6839 54.5447 71.624 54.7477 71.5053 54.9139C71.3866 55.08 71.2168 55.2065 70.996 55.2931C70.7764 55.3798 70.5123 55.4231 70.2037 55.4231C69.8868 55.4231 69.6102 55.3762 69.374 55.2824C69.1389 55.1887 68.9561 55.0444 68.8256 54.8498C68.6962 54.6539 68.6309 54.4034 68.6297 54.0984H69.5698C69.5758 54.21 69.6037 54.3037 69.6535 54.3797C69.7034 54.4557 69.7734 54.5132 69.8636 54.5524C69.955 54.5916 70.0636 54.6112 70.1895 54.6112C70.2951 54.6112 70.3835 54.5981 70.4548 54.572C70.526 54.5459 70.58 54.5097 70.6168 54.4634C70.6536 54.4171 70.6726 54.3643 70.6738 54.3049C70.6726 54.2491 70.6542 54.2005 70.6186 54.1589C70.5841 54.1162 70.5272 54.0782 70.4476 54.045C70.3681 54.0105 70.2607 53.9785 70.1254 53.9488L69.7621 53.8705C69.4393 53.8004 69.1846 53.6835 68.9983 53.5197C68.8131 53.3547 68.7211 53.1298 68.7223 52.8449C68.7211 52.6134 68.7828 52.411 68.9075 52.2377C69.0333 52.0632 69.2072 51.9273 69.4292 51.83C69.6523 51.7326 69.9081 51.684 70.1966 51.684C70.491 51.684 70.7456 51.7332 70.9604 51.8317C71.1753 51.9303 71.3409 52.0692 71.4572 52.2484C71.5747 52.4264 71.6341 52.6348 71.6353 52.8734H70.688Z" fill="#337DFF"/>
<path d="M63.9336 55.3804V51.7338H64.9235V53.2081H64.9734L66.0702 51.7338H67.224L65.9919 53.3577L67.2525 55.3804H66.0702L65.2512 54.0129L64.9235 54.4402V55.3804H63.9336Z" fill="#337DFF"/>
<path d="M59.6366 55.3804H58.5683L59.7719 51.7338H61.1252L62.3288 55.3804H61.2605L60.4628 52.738H60.4343L59.6366 55.3804ZM59.4372 53.9417H61.4457V54.6824H59.4372V53.9417Z" fill="#337DFF"/>
<path d="M54.5714 55.3804V51.7338H55.5614V54.5827H57.0357V55.3804H54.5714Z" fill="#337DFF"/>
<path d="M50.0275 55.3804V51.7338H51.6015C51.8721 51.7338 52.1089 51.7872 52.3119 51.8941C52.5149 52.0009 52.6728 52.1511 52.7855 52.3445C52.8983 52.538 52.9547 52.7642 52.9547 53.0229C52.9547 53.2841 52.8965 53.5102 52.7802 53.7013C52.665 53.8924 52.503 54.0396 52.2941 54.1429C52.0864 54.2462 51.8436 54.2978 51.5659 54.2978H50.6257V53.5286H51.3664C51.4828 53.5286 51.5819 53.5084 51.6638 53.4681C51.7469 53.4265 51.8104 53.3678 51.8543 53.2918C51.8994 53.2158 51.922 53.1262 51.922 53.0229C51.922 52.9185 51.8994 52.8294 51.8543 52.7558C51.8104 52.6811 51.7469 52.6241 51.6638 52.5849C51.5819 52.5446 51.4828 52.5244 51.3664 52.5244H51.0174V55.3804H50.0275Z" fill="#337DFF"/>
<path d="M45.804 56C45.4147 56 45.0663 55.9472 44.7588 55.8415C44.4526 55.7371 44.1926 55.5839 43.9789 55.3821C43.7653 55.1804 43.6021 54.9352 43.4893 54.6468C43.3765 54.3583 43.3195 54.0307 43.3184 53.6639C43.3195 53.2983 43.3765 52.9642 43.4893 52.6615C43.6021 52.3576 43.7671 52.0953 43.9843 51.8745C44.2027 51.6525 44.4704 51.481 44.7873 51.3599C45.1042 51.2388 45.4669 51.1783 45.8752 51.1783C46.2432 51.1783 46.575 51.2287 46.8705 51.3296C47.1673 51.4293 47.4207 51.5765 47.6308 51.7712C47.8421 51.9647 48.0036 52.2027 48.1151 52.4852C48.2279 52.7677 48.2837 53.0918 48.2825 53.4574C48.2837 53.7067 48.2576 53.9251 48.2042 54.1126C48.1508 54.299 48.0718 54.4563 47.9674 54.5845C47.8629 54.7127 47.7347 54.8124 47.5828 54.8836C47.432 54.9548 47.2593 54.9993 47.0646 55.0171C46.8901 55.0338 46.7649 55.0254 46.6889 54.9922C46.613 54.959 46.5637 54.9115 46.5411 54.8498C46.5186 54.788 46.5008 54.7228 46.4877 54.6539H46.4664C46.4391 54.7275 46.3756 54.7916 46.2758 54.8462C46.1761 54.9008 46.0586 54.9418 45.9233 54.9691C45.788 54.9964 45.6532 55.0053 45.5191 54.9958C45.3885 54.9863 45.258 54.9548 45.1274 54.9014C44.9968 54.848 44.8769 54.7679 44.7677 54.661C44.6597 54.5542 44.573 54.4171 44.5078 54.2497C44.4425 54.0812 44.4092 53.8788 44.4081 53.6426C44.4092 53.4052 44.4419 53.2034 44.506 53.0372C44.5713 52.871 44.655 52.7339 44.757 52.6259C44.8603 52.5178 44.9713 52.4348 45.09 52.3766C45.2099 52.3184 45.3244 52.2798 45.4336 52.2609C45.5773 52.2347 45.7168 52.2318 45.8521 52.252C45.9874 52.2709 46.1025 52.3036 46.1975 52.3499C46.2925 52.395 46.3512 52.4437 46.3738 52.4959H46.4023V52.2965H47.0789V54.1197C47.0812 54.191 47.0931 54.2384 47.1145 54.2622C47.137 54.2859 47.1631 54.2978 47.1928 54.2978C47.2486 54.2978 47.3008 54.2657 47.3495 54.2016C47.3994 54.1364 47.4391 54.0372 47.4688 53.9043C47.4997 53.7702 47.5145 53.5998 47.5133 53.3933C47.5145 53.1274 47.4801 52.9054 47.41 52.7274C47.3412 52.5481 47.2486 52.4045 47.1323 52.2965C47.016 52.1873 46.886 52.1054 46.7423 52.0508C46.5999 51.995 46.4533 51.9582 46.3026 51.9404C46.1518 51.9214 46.0094 51.9119 45.8752 51.9119C45.5678 51.9119 45.3031 51.9582 45.0811 52.0508C44.8603 52.1422 44.6787 52.268 44.5363 52.4282C44.3938 52.5873 44.2882 52.7695 44.2193 52.9749C44.1517 53.179 44.1172 53.3945 44.116 53.6212C44.1172 53.8883 44.1558 54.1239 44.2318 54.3281C44.3089 54.5322 44.4211 54.7032 44.5683 54.8409C44.7167 54.9786 44.8989 55.083 45.1149 55.1542C45.3322 55.2243 45.5808 55.2593 45.861 55.2593C46.0022 55.2593 46.1393 55.2516 46.2723 55.2361C46.4052 55.2195 46.5275 55.1982 46.6391 55.172C46.7507 55.1447 46.845 55.1145 46.9222 55.0812L47.1501 55.7222C47.0753 55.7721 46.9703 55.8178 46.8349 55.8593C46.7008 55.9021 46.5453 55.9359 46.3684 55.9608C46.1928 55.9869 46.0046 56 45.804 56ZM45.804 54.2622C45.9405 54.2622 46.0473 54.2373 46.1245 54.1874C46.2028 54.1364 46.2574 54.0628 46.2883 53.9666C46.3204 53.8693 46.3346 53.7518 46.331 53.6141C46.3299 53.5096 46.3162 53.4123 46.2901 53.3221C46.2652 53.2307 46.2141 53.1571 46.137 53.1013C46.061 53.0443 45.9453 53.0158 45.7898 53.0158C45.6604 53.0158 45.5506 53.039 45.4604 53.0852C45.3713 53.1304 45.3031 53.198 45.2556 53.2882C45.2093 53.3773 45.1856 53.4882 45.1844 53.6212C45.1856 53.7304 45.2051 53.8343 45.2431 53.9328C45.2823 54.0301 45.3464 54.1097 45.4354 54.1714C45.5256 54.2319 45.6485 54.2622 45.804 54.2622Z" fill="#337DFF"/>
<path d="M41.5672 51.7338V55.3804H40.5772V51.7338H41.5672Z" fill="#337DFF"/>
<path d="M36.2804 55.3804H35.212L36.4157 51.7338H37.7689L38.9725 55.3804H37.9042L37.1065 52.738H37.078L36.2804 55.3804ZM36.0809 53.9417H38.0894V54.6824H36.0809V53.9417Z" fill="#337DFF"/>
</svg>
